<svg width="132" height="32" viewBox="0 0 132 32" fill="none" xmlns="http://www.w3.org/2000/svg">
<path d="M117.8 7.54248C127.267 7.54248 132 11.4057 132 19.1321C132 26.8995 128.706 30.7831 117.8 30.7831C117.8 30.7831 104.764 32.2399 104.764 19.1321C104.764 6.02434 104.764 15.9616 104.764 15.9616V0H112.659V7.54248H117.8ZM112.659 19.1321C112.659 23.499 117.432 23.6891 117.432 23.6891C119.961 23.6891 121.493 23.629 122.513 23.0567C123.574 22.4435 124.104 21.1353 124.104 19.1321C124.104 17.1699 123.574 15.9026 122.513 15.3302C121.493 14.717 119.718 14.4104 117.188 14.4104H112.659C112.659 14.4104 112.659 14.7652 112.659 19.1321Z" fill="#E7FF54"/>
<path d="M4.59444 26.9771C1.53148 24.1919 0 20.392 0 15.5775C0 10.763 1.53148 6.96312 4.59444 4.17787C7.6574 1.39262 11.6154 0 16.4684 0C21.2816 0 25.2197 1.39262 28.2826 4.17787C31.3456 6.96312 32.8771 10.763 32.8771 15.5775C32.8771 20.392 31.3456 24.1919 28.2826 26.9771C25.2197 29.7624 21.2816 31.155 16.4684 31.155C11.6154 31.155 7.6574 29.7624 4.59444 26.9771ZM10.0242 9.07195C8.47286 10.6635 7.69718 12.832 7.69718 15.5775C7.69718 18.323 8.47286 20.4915 10.0242 22.083C11.5756 23.6746 13.7236 24.4704 16.4684 24.4704C19.2131 24.4704 21.3612 23.6746 22.9125 22.083C24.4639 20.4915 25.2396 18.323 25.2396 15.5775C25.2396 12.832 24.4639 10.6635 22.9125 9.07195C21.3612 7.48038 19.2131 6.68459 16.4684 6.68459C13.7236 6.68459 11.5756 7.48038 10.0242 9.07195Z" fill="#E7FF54"/>
<path d="M36.8846 15.5775C36.8846 10.8824 38.3366 7.12228 41.2404 4.29724C44.1442 1.43241 48.0028 0 52.816 0C56.7939 0 60.2546 1.0942 63.1982 3.28261C66.1816 5.43123 67.8126 8.5348 68.091 12.5933H60.3938C60.1154 10.6834 59.2999 9.23111 57.9474 8.23637C56.595 7.20185 54.8845 6.68459 52.816 6.68459C50.1508 6.68459 48.1022 7.50027 46.6702 9.13163C45.2779 10.7232 44.5818 12.8718 44.5818 15.5775C44.5818 18.2832 45.2779 20.4517 46.6702 22.083C48.1022 23.6746 50.1508 24.4704 52.816 24.4704C54.8845 24.4704 56.595 23.973 57.9474 22.9783C59.2999 21.9438 60.1154 20.4716 60.3938 18.5617H68.091C67.8126 22.6202 66.1816 25.7436 63.1982 27.9321C60.2546 30.0807 56.7939 31.155 52.816 31.155C48.0028 31.155 44.1442 29.7425 41.2404 26.9174C38.3366 24.0924 36.8846 20.3124 36.8846 15.5775Z" fill="#E7FF54"/>
<path d="M76.5142 9.52029L78.1218 4.43781L82.2557 5.73153L84.8279 7.81073L83.8633 4.71503V0.371826H89.1455V4.71503L88.0891 7.85693L90.6613 5.91635L94.7493 4.57642L96.4028 9.6589L92.2689 11.045L88.9618 10.9988L91.5799 12.847L94.1062 16.3585L89.8345 19.5004L87.3542 16.0351L86.3437 12.8008L85.3791 15.8965L82.8528 19.3618L78.5352 16.2199L81.1074 12.7546L83.7715 10.814H80.6021L76.5142 9.52029Z" fill="#E7FF54"/>
</svg>
