<svg width="142" height="41" viewBox="0 0 142 41" fill="none" xmlns="http://www.w3.org/2000/svg">
<g filter="url(#filter0_f_83_194)">
<path d="M122.8 12.505C132.267 12.505 137 16.349 137 24.037C137 31.7656 133.706 35.63 122.8 35.63C122.8 35.63 109.764 37.0795 109.764 24.037C109.764 10.9944 109.764 20.8822 109.764 20.8822V5H117.659V12.505H122.8ZM117.659 24.037C117.659 28.3821 122.432 28.5712 122.432 28.5712C124.961 28.5712 126.493 28.5114 127.513 27.942C128.574 27.3318 129.104 26.0301 129.104 24.037C129.104 22.0844 128.574 20.8235 127.513 20.254C126.493 19.6438 124.718 19.3387 122.188 19.3387H117.659C117.659 19.3387 117.659 19.6918 117.659 24.037Z" fill="#E7FF54"/>
<path d="M9.59444 31.8429C6.53148 29.0715 5 25.2906 5 20.5C5 15.7095 6.53148 11.9285 9.59444 9.15709C12.6574 6.38569 16.6154 5 21.4684 5C26.2816 5 30.2197 6.38569 33.2826 9.15709C36.3456 11.9285 37.8771 15.7095 37.8771 20.5C37.8771 25.2906 36.3456 29.0715 33.2826 31.8429C30.2197 34.6143 26.2816 36 21.4684 36C16.6154 36 12.6574 34.6143 9.59444 31.8429ZM15.0242 14.0268C13.4729 15.6105 12.6972 17.7682 12.6972 20.5C12.6972 23.2318 13.4729 25.3895 15.0242 26.9732C16.5756 28.5568 18.7236 29.3487 21.4684 29.3487C24.2131 29.3487 26.3612 28.5568 27.9125 26.9732C29.4639 25.3895 30.2396 23.2318 30.2396 20.5C30.2396 17.7682 29.4639 15.6105 27.9125 14.0268C26.3612 12.4432 24.2131 11.6513 21.4684 11.6513C18.7236 11.6513 16.5756 12.4432 15.0242 14.0268Z" fill="#E7FF54"/>
<path d="M41.8846 20.5C41.8846 15.8282 43.3366 12.0868 46.2404 9.27586C49.1442 6.42529 53.0028 5 57.816 5C61.7939 5 65.2546 6.08876 68.1982 8.26628C71.1816 10.4042 72.8126 13.4923 73.091 17.5307H65.3938C65.1154 15.6303 64.2999 14.1852 62.9474 13.1954C61.595 12.166 59.8845 11.6513 57.816 11.6513C55.1508 11.6513 53.1022 12.463 51.6702 14.0862C50.2779 15.6699 49.5818 17.8078 49.5818 20.5C49.5818 23.1922 50.2779 25.3499 51.6702 26.9732C53.1022 28.5568 55.1508 29.3487 57.816 29.3487C59.8845 29.3487 61.595 28.8538 62.9474 27.864C64.2999 26.8346 65.1154 25.3697 65.3938 23.4694H73.091C72.8126 27.5077 71.1816 30.6156 68.1982 32.7931C65.2546 34.931 61.7939 36 57.816 36C53.0028 36 49.1442 34.5945 46.2404 31.7835C43.3366 28.9725 41.8846 25.2114 41.8846 20.5Z" fill="#E7FF54"/>
<path d="M81.5142 14.4728L83.1218 9.41563L87.2557 10.7029L89.8279 12.7718L88.8633 9.69147V5.36987H94.1455V9.69147L93.0891 12.8177L95.6613 10.8868L99.7493 9.55355L101.403 14.6107L97.2689 15.99L93.9618 15.944L96.5799 17.783L99.1062 21.277L94.8345 24.4033L92.3542 20.9552L91.3437 17.737L90.3791 20.8173L87.8528 24.2654L83.5352 21.1391L86.1074 17.691L88.7715 15.7601H85.6021L81.5142 14.4728Z" fill="#E7FF54"/>
</g>
<defs>
<filter id="filter0_f_83_194" x="0" y="0" width="142" height="41" filterUnits="userSpaceOnUse" color-interpolation-filters="sRGB">
<feFlood flood-opacity="0" result="BackgroundImageFix"/>
<feBlend mode="normal" in="SourceGraphic" in2="BackgroundImageFix" result="shape"/>
<feGaussianBlur stdDeviation="2.5" result="effect1_foregroundBlur_83_194"/>
</filter>
</defs>
</svg>
